trial_5_IK.mot
nRows=10
nColumns=42

name trial_5_IK.mot
datacolumns 42
datarows 10
range 7.8100000000 7.9000000000
endheader
time	pelvis_tilt	pelvis_list	pelvis_rotation	pelvis_tx	pelvis_ty	pelvis_tz	hip_flexion_r	hip_adduction_r	hip_rotation_r	knee_angle_r	knee_vv_r	knee_rot_r	ankle_angle_r	subtalar_angle_r	mtp_angle_r	hip_flexion_l	hip_adduction_l	hip_rotation_l	knee_angle_l	knee_vv_l	knee_rot_l	ankle_angle_l	subtalar_angle_l	mtp_angle_l	lumbar_extension	lumbar_bending	lumbar_rotation	arm_flex_r	arm_add_r	arm_rot_r	elbow_flex_r	pro_sup_r	wrist_flex_r	wrist_dev_r	arm_flex_l	arm_add_l	arm_rot_l	elbow_flex_l	pro_sup_l	wrist_flex_l	wrist_dev_l
        7.8100000000	        9.9215820800	        2.5258072900	        2.7178520200	        0.0644174400	        0.8988060900	       -0.0514151100	       11.8479634700	       -3.2948980100	       -1.6493319600	       -7.0458723200	        0.0000000000	        0.0000000000	        1.1240170400	        0.0000000000	        0.0000000000	      -23.5638983700	        4.5411109600	        2.0493861900	       -4.5055288400	        0.0000000000	        0.0000000000	       11.0411818100	        0.0000000000	        0.0000000000	      -24.9048178900	       -1.1424862900	       -5.3812175100	       -4.0468693500	      -10.6341284800	       30.8691099000	        4.0336807600	       86.5166270600	        0.0000000000	        0.0000000000	       25.4863458100	      -21.6194009100	       24.5157393300	       31.1347559400	       85.9436692700	        0.0000000000	        0.0000000000	
        7.8200000000	       10.2843242500	        2.3976185000	        2.6894434600	        0.0661163300	        0.8980527200	       -0.0497356700	       11.6537066000	       -2.9021419700	       -1.6396698000	       -8.4753362300	        0.0000000000	        0.0000000000	        0.3224733700	        0.0000000000	        0.0000000000	      -24.5416626300	        4.2169938900	        1.8723817600	       -4.7022477400	        0.0000000000	        0.0000000000	       10.9183260100	        0.0000000000	        0.0000000000	      -25.1801919300	       -1.0596361900	       -5.2074418400	       -3.6163671100	      -10.7112694500	       31.3277940800	        4.0832559600	       86.5166270600	        0.0000000000	        0.0000000000	       24.9330824400	      -21.2950431200	       24.7701200200	       30.2377571700	       85.9436692700	        0.0000000000	        0.0000000000	
        7.8300000000	       10.6860838300	        2.1994705600	        2.6441650200	        0.0678440100	        0.8975387200	       -0.0479422500	       11.4298574400	       -2.4474338100	       -1.5524659700	       -9.7744140400	        0.0000000000	        0.0000000000	       -0.6715410700	        0.0000000000	        0.0000000000	      -25.4890778600	        3.8300706400	        1.5927553600	       -5.0059477900	        0.0000000000	        0.0000000000	       10.7131596800	        0.0000000000	        0.0000000000	      -25.4940105400	       -0.9094839200	       -4.9954759800	       -3.1259947900	      -10.8076007600	       31.8306368100	        4.1529175100	       86.5166270600	        0.0000000000	        0.0000000000	       24.3316426800	      -20.9356143200	       24.9967338800	       29.2646533000	       85.9436692700	        0.0000000000	        0.0000000000	
        7.8400000000	       11.1037284800	        1.9252817100	        2.5915385600	        0.0695367000	        0.8973538800	       -0.0460574200	       11.1646744700	       -1.9375361600	       -1.4046652300	      -10.9101751800	        0.0000000000	        0.0000000000	       -1.7475966400	        0.0000000000	        0.0000000000	      -26.3617300300	        3.3801429600	        1.2287408000	       -5.4565708600	        0.0000000000	        0.0000000000	       10.4278577700	        0.0000000000	        0.0000000000	      -25.8356948700	       -0.6860152100	       -4.7537933800	       -2.5709534600	      -10.9195250600	       32.3746415400	        4.2427132200	       86.5166270600	        0.0000000000	        0.0000000000	       23.6817292300	      -20.5383388400	       25.2102982900	       28.2109670600	       85.9436692700	        0.0000000000	        0.0000000000	
        7.8500000000	       11.5058928800	        1.5878079000	        2.5389267100	        0.0711821300	        0.8975049200	       -0.0441157600	       10.8355062800	       -1.3848059100	       -1.2290595300	      -11.9180448700	        0.0000000000	        0.0000000000	       -2.7566794000	        0.0000000000	        0.0000000000	      -27.1164113000	        2.8810515200	        0.8008175400	       -6.0921676400	        0.0000000000	        0.0000000000	       10.0629509900	        0.0000000000	        0.0000000000	      -26.1797836200	       -0.4022411800	       -4.4942426000	       -1.9577520200	      -11.0416898400	       32.9509947400	        4.3507612800	       86.5166270600	        0.0000000000	        0.0000000000	       22.9778201600	      -20.1036556400	       25.4349494600	       27.0718941900	       85.9436692700	        0.0000000000	        0.0000000000	
        7.8600000000	       11.8753148300	        1.2157391400	        2.4911177200	        0.0728741000	        0.8979393200	       -0.0421628700	       10.4423735700	       -0.8089293000	       -1.0655806400	      -12.8590395000	        0.0000000000	        0.0000000000	       -3.5452251500	        0.0000000000	        0.0000000000	      -27.7181757900	        2.3554764900	        0.3261676600	       -6.9495875700	        0.0000000000	        0.0000000000	        9.6122023400	        0.0000000000	        0.0000000000	      -26.4929064600	       -0.0887188400	       -4.2291445500	       -1.3015815600	      -11.1675873800	       33.5445209600	        4.4738601700	       86.5166270600	        0.0000000000	        0.0000000000	       22.2148945800	      -19.6366268900	       25.7023127600	       25.8432857500	       85.9436692700	        0.0000000000	        0.0000000000	
        7.8700000000	       12.2100998800	        0.8433335800	        2.4481279300	        0.0746936600	        0.8985816200	       -0.0402104600	       10.0155801500	       -0.2351887800	       -0.9497058300	      -13.7820603300	        0.0000000000	        0.0000000000	       -3.9918284800	        0.0000000000	        0.0000000000	      -28.1391352600	        1.8270011900	       -0.1843115600	       -8.0647278400	        0.0000000000	        0.0000000000	        9.0566780900	        0.0000000000	        0.0000000000	      -26.7450537000	        0.2156360800	       -3.9679152200	       -0.6188254100	      -11.2901485400	       34.1341972600	        4.6095106400	       86.5166270600	        0.0000000000	        0.0000000000	       21.3947894900	      -19.1460522300	       26.0479806900	       24.5232668100	       85.9436692700	        0.0000000000	        0.0000000000	
        7.8800000000	       12.5062274600	        0.4990663900	        2.4032500100	        0.0765841100	        0.8993566900	       -0.0382235700	        9.5908787000	        0.3115951000	       -0.9026934700	      -14.7089912700	        0.0000000000	        0.0000000000	       -4.0354718300	        0.0000000000	        0.0000000000	      -28.3505943000	        1.3131965300	       -0.7250270600	       -9.4704701200	        0.0000000000	        0.0000000000	        8.3600843700	        0.0000000000	        0.0000000000	      -26.9182337900	        0.4759488800	       -3.7144275500	        0.0804534400	      -11.4025457500	       34.6950041200	        4.7581230200	       86.5166270600	        0.0000000000	        0.0000000000	       20.5288962600	      -18.6418264600	       26.5067152300	       23.1140998600	       85.9436692700	        0.0000000000	        0.0000000000	
        7.8900000000	       12.7492207100	        0.1975647800	        2.3464443100	        0.0784226300	        0.9002221800	       -0.0361592900	        9.1861019100	        0.8136981900	       -0.9265289800	      -15.6333083500	        0.0000000000	        0.0000000000	       -3.6865466400	        0.0000000000	        0.0000000000	      -28.3187685400	        0.8213471000	       -1.2910396300	      -11.1933583000	        0.0000000000	        0.0000000000	        7.4680035300	        0.0000000000	        0.0000000000	      -27.0086468000	        0.6711108900	       -3.4670844700	        0.7949914600	      -11.4994269700	       35.2010634700	        4.9239991100	       86.5166270600	        0.0000000000	        0.0000000000	       19.6355915000	      -18.1317831300	       27.1070369800	       21.6235992300	       85.9436692700	        0.0000000000	        0.0000000000	
        7.9000000000	       12.9234550400	       -0.0620376500	        2.2727443300	        0.0801583700	        0.9011903600	       -0.0339818400	        8.8002755900	        1.2642586700	       -1.0044900400	      -16.5217379600	        0.0000000000	        0.0000000000	       -3.0183148500	        0.0000000000	        0.0000000000	      -28.0103804300	        0.3462691500	       -1.8715116400	      -13.2506491400	        0.0000000000	        0.0000000000	        6.3134920000	        0.0000000000	        0.0000000000	      -27.0233316300	        0.7976513100	       -3.2215253000	        1.5291002800	      -11.5785384000	       35.6294967500	        5.1146937100	       86.5166270600	        0.0000000000	        0.0000000000	       18.7337308000	      -17.6198708100	       27.8663170100	       20.0652146700	       85.9436692700	        0.0000000000	        0.0000000000	
